<?xml version="1.0" encoding="utf-8"?>
<!-- Generator: Adobe Illustrator 24.0.0, SVG Export Plug-In . SVG Version: 6.00 Build 0)  -->
<svg version="1.1" id="Calque_1" xmlns="http://www.w3.org/2000/svg" xmlns:xlink="http://www.w3.org/1999/xlink" x="0px" y="0px"
	 viewBox="0 0 500 500" style="enable-background:new 0 0 500 500;" xml:space="preserve">
<style type="text/css">
	.st0{fill:#FFC100;}
	.st1{opacity:0.7;fill:#FFFFFF;enable-background:new    ;}
	.st2{fill:none;stroke:#263238;stroke-linecap:round;stroke-linejoin:round;}
	.st3{fill:#FFC100;stroke:#263238;stroke-linecap:round;stroke-linejoin:round;}
	.st4{opacity:0.2;enable-background:new    ;}
	.st5{fill:#FFFFFF;stroke:#263238;stroke-linecap:round;stroke-linejoin:round;}
	.st6{opacity:0.64;}
	.st7{fill:#FFFFFF;}
	.st8{fill:#263238;}
	.st9{fill:none;stroke:#FFFFFF;stroke-width:2;stroke-linecap:round;stroke-linejoin:round;}
	.st10{fill:#263238;stroke:#263238;stroke-linecap:round;stroke-linejoin:round;}
	.st11{fill:#ADADAD;stroke:#263238;stroke-linecap:round;stroke-linejoin:round;}
	.st12{fill:none;stroke:#263238;stroke-width:2;stroke-linecap:round;stroke-linejoin:round;}
	.st13{fill:none;stroke:#FFFFFF;stroke-linecap:round;stroke-linejoin:round;}
	.st14{font-family:'Centaur';}
	.st15{font-size:18px;}
</style>
<g id="freepik--background-simple--inject-19">
	<path class="st0" d="M437.4,318.9c0,0,51.1-57.4,34.9-157.3s-99.7-136.7-155-117.5s-67.8,52.7-113,71.8s-131.1,6-174,70.3
		s11.9,170.8,81.7,237.6S359.8,448.8,437.4,318.9z"/>
	<path class="st1" d="M437.4,318.9c0,0,51.1-57.4,34.9-157.3s-99.7-136.7-155-117.5s-67.8,52.7-113,71.8s-131.1,6-174,70.3
		s11.9,170.8,81.7,237.6S359.8,448.8,437.4,318.9z"/>
</g>
<g id="freepik--Plant--inject-19">
	<line class="st2" x1="38.3" y1="330.9" x2="50.9" y2="452"/>
	<line class="st2" x1="49.1" y1="434.9" x2="43.5" y2="429"/>
	<path class="st3" d="M45.3,430.9c0-2-0.9-3.9-2.4-5.2c-1.6-1.4-9.8-4.9-10.6-2C31.4,426.9,39.9,433.1,45.3,430.9z"/>
	<line class="st2" x1="45.3" y1="430.9" x2="37.5" y2="426"/>
	<line class="st2" x1="50.5" y1="448.3" x2="45" y2="443.7"/>
	<path class="st3" d="M46.8,445.6c0-2-0.9-3.9-2.4-5.2c-1.6-1.4-9.8-4.9-10.6-2C32.9,441.6,41.4,447.8,46.8,445.6z"/>
	<line class="st2" x1="46.8" y1="445.6" x2="39" y2="440.7"/>
	<line class="st2" x1="45.3" y1="398.1" x2="39.7" y2="393.1"/>
	<path class="st3" d="M41.6,395c0-2-0.9-3.9-2.4-5.2c-1.6-1.4-9.8-4.9-10.6-2C27.7,391,36.1,397.2,41.6,395z"/>
	<line class="st2" x1="41.6" y1="395" x2="33.7" y2="390.1"/>
	<line class="st2" x1="46.8" y1="413.7" x2="41.3" y2="407.8"/>
	<path class="st3" d="M43.1,409.7c0-2-0.9-3.9-2.4-5.2c-1.6-1.4-9.8-4.9-10.6-2C29.2,405.7,37.7,412,43.1,409.7z"/>
	<line class="st2" x1="43.1" y1="409.7" x2="35.2" y2="404.8"/>
	<line class="st2" x1="42.8" y1="374.9" x2="37.2" y2="369.2"/>
	<path class="st3" d="M39.1,371.1c0-2-0.9-3.9-2.4-5.2c-1.6-1.4-9.8-4.9-10.6-2C25.2,367.1,33.6,373.4,39.1,371.1z"/>
	<line class="st2" x1="39.1" y1="371.1" x2="31.2" y2="366.2"/>
	<line class="st2" x1="40.1" y1="349.3" x2="34.7" y2="345.2"/>
	<path class="st3" d="M36.6,347.1c0-2-0.9-3.9-2.4-5.2c-1.6-1.4-9.8-4.9-10.6-2C22.7,343.1,31.1,349.4,36.6,347.1z"/>
	<line class="st2" x1="36.6" y1="347.1" x2="28.7" y2="342.2"/>
	<line class="st2" x1="48.5" y1="426.7" x2="53.2" y2="419.1"/>
	<path class="st3" d="M51.8,421.4c-0.4-2,0.1-4,1.3-5.6c1.3-1.7,8.6-6.8,10-4.1C64.6,414.6,57.6,422.5,51.8,421.4z"/>
	<line class="st2" x1="51.8" y1="421.4" x2="57.3" y2="416.2"/>
	<line class="st2" x1="44.5" y1="388" x2="49.2" y2="380.4"/>
	<path class="st3" d="M47.7,382.7c-0.4-2,0.1-4,1.3-5.6c1.3-1.7,7-6,8.4-3.3C58.9,376.8,53.5,383.8,47.7,382.7z"/>
	<line class="st2" x1="47.7" y1="382.7" x2="54.8" y2="376"/>
	<line class="st2" x1="42.7" y1="371" x2="47.4" y2="363.4"/>
	<path class="st3" d="M46,365.7c-0.4-2,0.1-4,1.3-5.6c1.2-1.7,8.6-6.8,10-4.1C58.8,358.9,51.8,366.8,46,365.7z"/>
	<line class="st2" x1="46" y1="365.7" x2="53" y2="358.9"/>
	<line class="st2" x1="40.1" y1="346.1" x2="44.8" y2="338.5"/>
	<path class="st3" d="M43.4,340.8c-0.4-2,0.1-4,1.3-5.6c1.3-1.7,8.6-6.8,10-4.1C56.2,334,49.2,341.8,43.4,340.8z"/>
	<line class="st2" x1="43.4" y1="340.8" x2="50.5" y2="334"/>
	<path class="st3" d="M38.1,330.1c-0.4-2,0.1-4,1.3-5.6c1.3-1.7,8.6-6.8,10-4.1C50.9,323.4,43.9,331.2,38.1,330.1z"/>
	<line class="st2" x1="38.1" y1="330.1" x2="45.2" y2="323.4"/>
	<path class="st3" d="M38.5,330.4c-2,0.2-4-0.5-5.4-1.9c-1.6-1.4-5.9-9.3-3-10.4C33.2,317,40.2,324.8,38.5,330.4z"/>
	<line class="st2" x1="38.5" y1="330.4" x2="32.6" y2="322.7"/>
	<line class="st2" x1="58.5" y1="296" x2="58.5" y2="451.7"/>
	<line class="st2" x1="73.8" y1="348.7" x2="63.1" y2="452.3"/>
	<line class="st2" x1="63.3" y1="451.6" x2="60.2" y2="448"/>
	<path class="st3" d="M60.2,448c0.4-2-0.1-4-1.3-5.6c-1.3-1.7-8.6-6.8-10-4.1C47.4,441.3,54.4,449.1,60.2,448z"/>
	<line class="st2" x1="60.2" y1="448" x2="53.5" y2="441.6"/>
	<line class="st2" x1="67.1" y1="414.7" x2="62.5" y2="410.8"/>
	<path class="st3" d="M63.9,412.1c0.4-2-0.1-4-1.3-5.6c-1.3-1.7-8.6-6.8-10-4.1C51.1,405.4,58.1,413.2,63.9,412.1z"/>
	<line class="st2" x1="63.9" y1="412.1" x2="57.2" y2="405.7"/>
	<line class="st2" x1="65.6" y1="432.1" x2="60.9" y2="424.6"/>
	<path class="st3" d="M62.4,426.9c0.4-2-0.1-4-1.3-5.6c-1.3-1.7-8.6-6.8-10-4.1C49.6,420.1,56.6,427.9,62.4,426.9z"/>
	<line class="st2" x1="62.4" y1="426.9" x2="55.7" y2="420.4"/>
	<line class="st2" x1="69.4" y1="391.1" x2="64.9" y2="386"/>
	<path class="st3" d="M66.4,388.2c0.4-2-0.1-4-1.3-5.6c-1.3-1.7-8.6-6.8-10-4.1C53.6,381.5,60.6,389.3,66.4,388.2z"/>
	<line class="st2" x1="66.4" y1="388.2" x2="59.7" y2="381.8"/>
	<line class="st2" x1="71.7" y1="368.6" x2="67.4" y2="362"/>
	<path class="st3" d="M68.9,364.3c0.4-2-0.1-4-1.3-5.6c-1.3-1.7-8.6-6.8-10-4.1C56.1,357.5,63.1,365.3,68.9,364.3z"/>
	<line class="st2" x1="68.9" y1="364.3" x2="62.2" y2="357.8"/>
	<line class="st2" x1="64.2" y1="444.6" x2="70.3" y2="438.1"/>
	<path class="st3" d="M68.4,440.1c0-2,0.9-3.9,2.4-5.2c1.6-1.4,9.8-4.9,10.6-2C82.3,436.1,73.9,442.3,68.4,440.1z"/>
	<line class="st2" x1="68.4" y1="440.1" x2="76.8" y2="434.9"/>
	<line class="st2" x1="68.2" y1="405.9" x2="74.3" y2="399.4"/>
	<path class="st3" d="M72.5,401.4c0-2,0.9-3.9,2.4-5.2c1.6-1.4,9.8-4.9,10.6-2C86.4,397.4,77.9,403.6,72.5,401.4z"/>
	<line class="st2" x1="72.5" y1="401.4" x2="80.8" y2="396.2"/>
	<line class="st2" x1="70" y1="388.9" x2="76.1" y2="382.4"/>
	<path class="st3" d="M74.2,384.4c0-2,0.9-3.9,2.4-5.2c1.6-1.4,9.8-4.9,10.6-2C88.1,380.4,79.7,386.6,74.2,384.4z"/>
	<line class="st2" x1="74.2" y1="384.4" x2="82.6" y2="379.2"/>
	<line class="st2" x1="72.5" y1="362.7" x2="78.7" y2="357.5"/>
	<path class="st3" d="M76.8,359.4c0-2,0.9-3.9,2.4-5.2c1.6-1.4,9.8-4.9,10.6-2C90.7,355.4,82.3,361.6,76.8,359.4z"/>
	<line class="st2" x1="76.8" y1="359.4" x2="85.1" y2="354.3"/>
	<path class="st3" d="M73.9,347.9c0-2,0.9-3.9,2.4-5.2c1.6-1.4,9.8-4.9,10.6-2C87.8,343.9,79.3,350.2,73.9,347.9z"/>
	<line class="st2" x1="73.9" y1="347.9" x2="82.2" y2="342.8"/>
	<path class="st3" d="M74.2,348.3c-2-0.2-3.8-1.3-4.9-3c-1.2-1.7-3.8-10.3-0.8-10.8C71.7,334.1,77,343.1,74.2,348.3z"/>
	<line class="st2" x1="74.2" y1="348.3" x2="70" y2="339.5"/>
	<line class="st2" x1="58.3" y1="434.7" x2="53.2" y2="427.9"/>
	<path class="st3" d="M54.8,430c0.2-2-0.5-3.9-1.8-5.4c-1.4-1.6-9.3-5.9-10.4-3.1C41.4,424.6,49.2,431.7,54.8,430z"/>
	<line class="st2" x1="54.8" y1="430" x2="47.5" y2="424.3"/>
	<line class="st2" x1="58.4" y1="402" x2="53.2" y2="397.2"/>
	<path class="st3" d="M54.8,399.3c0.2-2-0.5-4-1.8-5.4c-1.4-1.6-9.3-5.9-10.4-3.1C41.4,393.9,49.2,400.9,54.8,399.3z"/>
	<line class="st2" x1="54.8" y1="399.3" x2="47.5" y2="393.6"/>
	<line class="st2" x1="58.6" y1="368.1" x2="53.2" y2="361.1"/>
	<path class="st3" d="M54.8,363.2c0.2-2-0.5-4-1.8-5.4c-1.4-1.6-9.3-5.9-10.4-3.1C41.4,357.8,49.2,364.9,54.8,363.2z"/>
	<line class="st2" x1="54.8" y1="363.2" x2="47.5" y2="357.5"/>
	<line class="st2" x1="58.3" y1="341.6" x2="53.2" y2="337.1"/>
	<path class="st3" d="M54.8,339.2c0.2-2-0.5-4-1.8-5.4c-1.4-1.5-9.3-5.9-10.4-3.1C41.4,333.8,49.2,340.8,54.8,339.2z"/>
	<line class="st2" x1="54.8" y1="339.2" x2="47.5" y2="333.5"/>
	<line class="st2" x1="58.5" y1="317.6" x2="53.3" y2="313.7"/>
	<path class="st3" d="M54.8,315c0.2-2-0.5-4-1.8-5.4c-1.4-1.6-9.3-5.9-10.4-3.1C41.4,309.6,49.2,316.7,54.8,315z"/>
	<line class="st2" x1="54.8" y1="315" x2="47.5" y2="309.4"/>
	<line class="st2" x1="59.5" y1="442.8" x2="63.9" y2="437.3"/>
	<path class="st3" d="M62.3,439.4c-0.2-2,0.5-4,1.9-5.4c1.4-1.6,9.3-5.9,10.4-3.1C75.7,434,67.9,441,62.3,439.4z"/>
	<line class="st2" x1="62.3" y1="439.4" x2="70" y2="433.4"/>
	<line class="st2" x1="58.5" y1="395.5" x2="63.9" y2="388.4"/>
	<path class="st3" d="M62.3,390.5c-0.2-2,0.5-4,1.9-5.4c1.4-1.6,9.3-5.9,10.4-3.1C75.7,385.1,67.9,392.2,62.3,390.5z"/>
	<line class="st2" x1="62.3" y1="390.5" x2="70" y2="384.5"/>
	<line class="st2" x1="58.5" y1="371.3" x2="63.9" y2="364.3"/>
	<path class="st3" d="M62.3,366.4c-0.2-2,0.5-3.9,1.9-5.4c1.4-1.6,9.3-5.9,10.4-3.1C75.7,361,67.9,368,62.3,366.4z"/>
	<line class="st2" x1="62.3" y1="366.4" x2="70" y2="360.4"/>
	<line class="st2" x1="58.5" y1="339.5" x2="63.9" y2="332.4"/>
	<path class="st3" d="M62.3,334.5c-0.2-2,0.5-4,1.9-5.4c1.4-1.6,9.3-5.9,10.4-3.1C75.7,329.1,67.9,336.2,62.3,334.5z"/>
	<line class="st2" x1="62.3" y1="334.5" x2="70" y2="328.5"/>
	<line class="st2" x1="58.7" y1="311.9" x2="64" y2="307.8"/>
	<path class="st3" d="M62.3,309.4c-0.2-2,0.5-4,1.9-5.4c1.4-1.6,9.3-5.9,10.4-3.1C75.7,304,67.9,311.1,62.3,309.4z"/>
	<line class="st2" x1="62.3" y1="309.4" x2="70" y2="303.4"/>
	<path class="st3" d="M58.2,298.3c-0.2-2,0.5-4,1.8-5.4c1.4-1.6,9.3-5.9,10.4-3.1C71.6,292.9,63.8,300,58.2,298.3z"/>
	<line class="st2" x1="58.2" y1="298.3" x2="65.9" y2="292.3"/>
	<path class="st3" d="M58.5,298.6c-2,0-3.9-0.9-5.2-2.4c-1.4-1.6-4.9-9.8-2-10.6C54.6,284.7,60.8,293.2,58.5,298.6z"/>
	<line class="st2" x1="58.5" y1="298.6" x2="53.4" y2="290.3"/>
</g>
<g id="freepik--Map--inject-19">
	<polygon class="st4" points="93.3,157.6 149.8,166.7 242.1,154 311,172.3 380.4,156.8 444.8,279.9 341,304.4 241.5,294.1 
		125.1,305.1 51.8,275.9 	"/>
	<polygon class="st5" points="77.3,107.2 139.6,117.2 241.5,103.2 317.4,123.4 394,106.3 465,242.1 350.6,269.1 240.8,257.8 
		112.4,269.9 31.5,237.6 	"/>
	<polygon class="st3" points="89.2,115.9 137.9,124.7 240.9,111.5 319,130 386.6,114.6 444.5,237.1 346.8,261.5 241.5,251.4 
		113.3,260.2 52.1,233.1 	"/>
	<g class="st6">
		<path class="st7" d="M366.5,170.1l-37.7,9.9h-11.5c0,0,14.8,14.2,43.2,16.9s35-2.7,35-2.7L366.5,170.1z"/>
		<polygon class="st7" points="202.4,120.4 177.2,125.8 173.9,134.6 189.8,131.3 186,151 204.6,148.8 207.9,126.4 		"/>
		<polygon class="st7" points="186.5,154.3 184.9,164.1 195.8,161.9 195.8,153.7 		"/>
		<polygon class="st7" points="180,154.3 177.8,165.2 156.4,167.9 157,160.3 		"/>
		<path class="st7" d="M306,202.9c-10.4,0-18.9,5.4-18.9,12s8.5,12,18.9,12s18.9-5.4,18.9-12S316.4,202.9,306,202.9z M306,220.4
			c-4.7,0-8.6-2.4-8.6-5.5s3.8-5.5,8.6-5.5s8.6,2.5,8.6,5.5S310.8,220.4,306,220.4L306,220.4z"/>
		<polygon class="st7" points="156.4,246.1 171.2,210 138.4,211.7 133.5,224.3 148.8,224.3 137.3,250.5 		"/>
		<polygon class="st7" points="219.9,167.4 241.8,162.5 270.2,171.2 248.3,175 242.3,170.1 219.9,174.5 		"/>
		<polygon class="st7" points="221,146.6 221.5,160.8 231.4,158.6 229.7,146.1 		"/>
		<polygon class="st7" points="84.8,154.3 76.1,179.4 111.6,188.7 117.1,169 101.8,154.8 		"/>
	</g>
	<path class="st5" d="M437,221.3l-14.1-14c2.4-0.3,4.8-0.6,7.1-1l-1.8-3.8c-2.8,0.4-5.8,0.8-8.9,1.2L377.1,162
		c11.2-1.7,21.9-3.1,30-3.9l-1.8-3.8c-8.8,0.9-20,2.5-31.5,4.2l0.1-0.7l-1.4-0.2l-14.9-14.7l33.4-18.9l-1.7-3.6l-34.6,19.6
		l-14.8-14.6l-4.6,1l30.5,30.2l-97.1-15.2c-0.5-1.1-0.9-2.1-1.4-3.2c-2.8-7-4.9-14.3-6.4-21.8l-4.3-1c1.6,8.2,3.9,16.3,7,24.1
		l0.5,1.2l-22.8-3.6l-23.5,2.1l-0.8-24.4l-4,0.5l2.2,66.8c-1.4,0-2.7,0-4-0.1c-36.9-1.1-76.9-11.9-82.8-15.1
		c-4-2.2-13-12.6-17.8-18.5c9.8-0.5,19.3-1.8,24.9-4.7c7.7-4,25.9-14.6,41.5-23.8l-10.1,1.3c-13.3,7.8-26.9,15.6-33.2,18.9
		c-11.3,5.9-41.7,4.7-53.3,3.9l-1.3,3.9c4.3,0.3,11.9,0.7,20.3,0.7c2,0,4.2,0,6.3-0.1c1.5,1.9,14.7,18.5,20.8,21.8
		s46.4,14.4,84.6,15.6c1.4,0,2.8,0.1,4.3,0.1l0.3,9.1l-30.6,0.9l-0.5-0.2l-0.1,0.2l-60.7,1.8l-56.1-14.2l-1.2,3.8l34.5,8.7l-32,44.6
		l3.7,1.6l32.5-45.2l18.1,4.6l59.7-1.7L165.8,249l-20.4,9l11.8-0.8l84.3-37.1l60.2-32.2c6.8,4.6,14.2,8.3,22,11
		c7,2.5,14.2,4.5,21.5,6.1l-8.8,17.6L300,257l5.3,0.5l34.1-32.3l0.3-0.2l9.6-19.2c10.1,1.9,20.4,3.1,30.7,3.5l-8.1,46l4.3-1.1
		l7.9-44.8c2.1,0.1,4.2,0.1,6.2,0.1c9.2,0,18.4-0.5,27.6-1.5l24.2,24L437,221.3z M170.8,246.8l16.6-47l28.4-0.8l0.9,27.6
		L170.8,246.8z M363.2,160.1c-23.2,3.7-45.4,7.6-50.2,8.6l-4,0.8c-4.3,0.9-11,2.3-19,3.8c-8-8.1-14.5-17.4-19.3-27.7L363.2,160.1z
		 M218,143l23.1-2l24.7,3.9c4.8,10.8,11.4,20.7,19.5,29.3c-13.6,2.5-30.4,5.1-46.8,6.6l-0.2-0.3l-0.5,0.3c-6.4,0.6-12.7,0.9-18.8,1
		L218,143z M219.4,185.8c3.9-0.1,7.9-0.2,11.9-0.5l-11.7,7.9L219.4,185.8z M239.8,216.4l-19.1,8.4l-0.9-26.9l19.6-13.2
		c17.5-1.6,35.5-4.5,49.5-7.1c2.9,2.7,5.9,5.3,9.1,7.7L239.8,216.4z M325,195c-11.6-4-22.2-10.2-31.4-18.3
		c6.9-1.3,12.5-2.5,16.3-3.3l3.9-0.8c7.1-1.4,33.4-6,58.3-9.9l42,41.5C388.9,206.7,356.5,206.1,325,195z"/>
	<line class="st2" x1="119.3" y1="225.8" x2="112.9" y2="263.3"/>
	<line class="st2" x1="137" y1="122.1" x2="120.6" y2="218.2"/>
	<line class="st2" x1="240.7" y1="107.2" x2="241.2" y2="146.1"/>
	<line class="st2" x1="321.6" y1="153.3" x2="344" y2="247.8"/>
	<line class="st2" x1="315.6" y1="128" x2="320.5" y2="148.8"/>
	<line class="st2" x1="241.8" y1="254.9" x2="241.2" y2="231.9"/>
</g>
<g id="freepik--Icon--inject-19">
	
		<ellipse transform="matrix(0.9729 -0.2311 0.2311 0.9729 -4.1085 85.5864)" class="st8" cx="363.3" cy="60.3" rx="13.3" ry="13.3"/>
	<path class="st9" d="M369.8,59.1c0-3.9-3.2-7.1-7.1-7.1c-3.9,0-7.1,3.2-7.1,7.1s3.2,7.1,7.1,7.1c0,0,0,0,0,0
		C366.6,66.2,369.8,63,369.8,59.1z"/>
	<line class="st9" x1="367.5" y1="64.7" x2="372" y2="68.8"/>
</g>
<g id="freepik--search-bar--inject-19">
	<path class="st5" d="M330.1,75H117.5c-8,0-14.5-6.5-14.5-14.5c0,0,0,0,0,0l0,0c0-8,6.4-14.5,14.4-14.5c0,0,0,0,0,0h212.6
		c8,0,14.5,6.5,14.5,14.5c0,0,0,0,0,0l0,0C344.6,68.5,338.1,75,330.1,75C330.1,75,330.1,75,330.1,75z"/>
</g>
<g id="freepik--Character--inject-19">
	<path class="st10" d="M441.5,360.2h-59c-6.1,0-11.2,4.7-11.5,10.8l-4.6,81h82.1l4.5-79.7c0.4-6.3-4.5-11.8-10.8-12.1
		C441.9,360.2,441.7,360.2,441.5,360.2z"/>
	<path class="st5" d="M327.7,330.9c0,0-30,6.4-32.6,9.7s-53.3,87.2-53.3,87.2s2.1,20.7,5.5,20.3s2.5,2.5,14-5.1
		c11.5-7.6,33.9-26.2,33.9-26.2l11.8,35.1h99c0,0,0.8-110.5-2.1-118.1s-27.5-13.1-36-13.1S327.7,330.9,327.7,330.9z"/>
	<path class="st10" d="M325.3,369l6.8,6.8l29.3-54.1c-12.4,2.5-33.7,9.3-33.7,9.3s-15.1,3.2-24.8,6.3l-12.8,11.4
		c-11.3,18.2-38,62.2-46,75.4l3.2,24.1c3.4-0.4,2.5,2.5,13.9-5.1s33.9-26.2,33.9-26.2l5.6,16.6c-1.4-7-6.7-35.3-4.8-40.2
		C298.2,387.6,325.3,369,325.3,369z"/>
	<polygon class="st5" points="321.4,344.2 295.4,382 295.4,360.5 	"/>
	<path class="st5" d="M332.5,388.1c0,0-3.1,24.4-2.7,28.7s7.4,30.2,7.4,30.2"/>
	<path class="st5" d="M329,328.5c0,0-7.2,13.9-12.7,26.1s-5.5,21.2-5.5,21.2s18.6-12.3,20.7-13.5s6.4-3.4,6.4-3.4l23.7,16.9
		c0,0,2.1-19.5,3-40.2s-6.4-28.8-12.3-29.2S329,328.5,329,328.5z"/>
	<path class="st10" d="M272.3,286.5c0,0-10.9,25.6-7.8,32.1s10.6-4.1,10.6-4.1s3.4,23.1,9.3,21.2s15-9.1,15-9.1s9.6,15.3,16.1,15.3
		s13.5-13.5,13.5-13.5s9.9-39.1,10.4-43.3s-1.3-31.1-16.3-36.3s-37,8.8-43.3,17.1S272.3,286.5,272.3,286.5z"/>
	<path class="st11" d="M287.5,308c0,0-3.4,11.9-3.4,15.7s-0.8,17.4-1.3,19.9s-43.6,55.4-49.9,66s-9.7,20.3-3.4,28.8
		s12.7,11.4,17.8,9.7s4.6-0.4,12.7-9.3c8-8.9,32.2-81.3,32.2-81.3s7.6-3.8,11-6.3s9.3-16.5,9.3-16.5L287.5,308z"/>
	<path class="st5" d="M229.5,438.4c6.4,8.5,12.7,11.4,17.8,9.7s4.6-0.4,12.7-9.3c1.7-1.9,4.2-6.8,7-13.2c-9.7,2.4-21.2,4-23.5,2.6
		c-6.8-4-10.6-18.6-10.6-18.6C226.6,420.2,223.2,429.9,229.5,438.4z"/>
	<path class="st11" d="M283.4,280.3c0,0,4,8.9,4,14.3s-5.8,12.9-2.2,18.7s14.7,28.5,14.7,28.5s5.8,3.1,11.6,0s17.8-8.9,17.8-8.9
		s-1.8,31.2,0.5,38.8s3.6,11.1,3.6,11.1s5.8-25.4,12-37s9.4-32.1,9.4-32.1s-0.5-8,0-16.1s-12-38.8-32.1-45.5s-31.2,0-36.6,8
		C280.7,268.2,283.4,280.3,283.4,280.3z"/>
	<path class="st2" d="M295.9,307c0,0,6.7,8.5,15.6,1.3"/>
	<path class="st2" d="M302.6,318.6c0,0,13.8,3.6,21-9.8"/>
	<path class="st8" d="M315.3,294c0,1.8-0.9,3.2-2.1,3.2s-2.1-1.5-2.1-3.2s0.9-3.2,2.1-3.2S315.3,292.2,315.3,294z"/>
	<path class="st8" d="M295.6,294c0,1.8-0.9,3.2-2.1,3.2s-2.1-1.5-2.1-3.2s0.9-3.2,2.1-3.2S295.6,292.2,295.6,294z"/>
	<path class="st12" d="M311.7,278.2c0,0,6.2-0.8,10.4,2.6"/>
	<path class="st12" d="M297.1,278.2c-3,0-6,1.1-8.3,3.1"/>
	<polygon class="st10" points="329.4,332.9 342,326.6 329,345.6 	"/>
	<path class="st10" d="M338.8,219.6c0,0-16.5-11.1-25.4-9.4s-30.8,17-34.8,18.3s-25.4,11.6-25.4,19.2s9.8,10.7,9.8,10.7
		s-24.1,21-17.9,25s21.9-4.5,21.9-4.5s-9.8,15.6-3.6,17s15.6-8.9,15.6-8.9s2.2,3.6,8.9-3.1s15.2-20.1,15.2-20.1s-0.9,8.9,4,7.6
		s11.2-10.3,11.2-10.3s4,41,10.3,37.9s6.3-7.1,6.3-7.1s0.4,16.5,4.5,15.2s6.3-5.8,6.3-5.8s4.5,17,9.8,16.5c3-0.2,5.6-2.4,6.3-5.4
		c0,0,1.3,18.7,12.9,14.7s13.4-16.5,13.4-16.5s8.5,9.8,13.4,2.7s1.7-16.1,1.7-16.1s8-0.9,7.1-7.6s-16.5-26.8-16.5-26.8
		s9.8,1.3,3.1-9.8s-18.7-21-27.2-26.3c-5-3.2-10.4-5.6-16.1-7.1c0,0,13.4-4.9,3.1-6.2S338.8,219.6,338.8,219.6z"/>
	<path class="st5" d="M374.4,371.3l2,35.4c0,0-8-1.3-8,0S370,424,370,424s15.2,8.9,23.3,11s6.8,9.3,10.6,8s12.3-2.5,14-10.2
		s-3-22-3.4-23.7s-3-67.3-8.5-78.7s-15.2-11.4-21.6-8.9s-13.1,14-13.1,14"/>
	<path class="st2" d="M411.4,417.5c2,2.8,3.5,4.9,3.5,4.9"/>
	<path class="st2" d="M380.2,405c0,0,16.5-0.9,19.9,0c1.7,0.4,5.6,5,8.9,9.3"/>
	<path class="st2" d="M401.8,399c5.1,1.7,6.3,3.8,6.3,3.8"/>
	<path class="st2" d="M381.9,401.1c3.7-0.9,7.4-1.6,11.2-2.1"/>
	<path class="st11" d="M410.7,435.3c0.5-7.5-8.1-21.6-18.2-23.2c-11-1.7-29.6,6.8-54.6,9.7s-36.4,3.8-44.9,3.8s-27.9-5.5-31.3-4.7
		s-19.1,17.4-22.4,21.2s-2.6,5-1.9,5.4s2.6-0.6,2.6-0.6s1.5,2,3.4,2c1.2-0.1,2.4-0.5,3.4-1.3c1.2,0.7,2.7,1,4.1,0.7
		c2.1-0.6,14-8.6,14.9-8.9s6.7-2,6.7-2c-3.2,2.5-6.6,4.8-10.2,6.7c-4.3,2-7.6,3.9-5.4,5s6-0.2,8.9-1.5s6.7-3,8-3.2
		s11.3-5.2,11.3-5.2s8.4,1.9,12.3,2.2s12.5-3.2,12.5-3.2s30.9,5.4,46.5,6.3s40.6,4.5,48.9,0.2C405.2,445,410.2,443,410.7,435.3z"/>
	<path class="st2" d="M246.7,447.8c0,0,12.9-12.9,14.3-14s9.6-3.4,9.6-3.4"/>
	<path class="st2" d="M240,447c0,0,13.7-14.4,15.4-16.4s7.9-4.5,7.9-4.5"/>
</g>
<g id="freepik--Locators--inject-19">
	<path class="st10" d="M103.1,144.7c-5.1,0-9.3,4.2-9.3,9.3c0,0,0,0,0,0c0,5.1,9.3,14.7,9.3,14.7s9.3-9.6,9.3-14.7
		C112.4,148.8,108.2,144.7,103.1,144.7C103.1,144.7,103.1,144.7,103.1,144.7z M103.1,157.7c-1.7,0-3.1-1.4-3.1-3.2
		c0-1.7,1.4-3.1,3.2-3.1c1.7,0,3.1,1.4,3.1,3.2c0,0,0,0,0,0C106.2,156.3,104.8,157.7,103.1,157.7L103.1,157.7z"/>
	<path class="st10" d="M199.6,101.7c-5.1,0-9.3,4.2-9.3,9.3c0,0,0,0,0,0c0,5.1,9.3,14.7,9.3,14.7s9.3-9.6,9.3-14.7
		C208.9,105.8,204.7,101.7,199.6,101.7L199.6,101.7z M199.6,114.7c-1.7,0-3.1-1.4-3.1-3.2c0-1.7,1.4-3.1,3.2-3.1
		c1.7,0,3.1,1.4,3.1,3.2c0,0,0,0,0,0C202.7,113.3,201.3,114.7,199.6,114.7L199.6,114.7z"/>
	<path class="st10" d="M183.9,167.2c-5.1,0-9.3,4.1-9.3,9.3c0,0,0,0,0,0c0,5.1,9.3,14.7,9.3,14.7s9.3-9.6,9.3-14.7
		C193.1,171.3,189,167.2,183.9,167.2z M183.9,180.2c-1.7,0-3.1-1.4-3.1-3.1s1.4-3.1,3.1-3.1c1.7,0,3.1,1.4,3.1,3.1
		C187,178.7,185.6,180.1,183.9,180.2L183.9,180.2z"/>
	<path class="st10" d="M370.4,161.2c-5.1,0-9.3,4.1-9.3,9.3c0,0,0,0,0,0c0,5.1,9.3,14.7,9.3,14.7s9.3-9.6,9.3-14.7
		C379.6,165.3,375.5,161.2,370.4,161.2L370.4,161.2z M370.4,174.2c-1.7,0-3.1-1.4-3.1-3.1s1.4-3.1,3.1-3.1c1.7,0,3.1,1.4,3.1,3.1
		C373.5,172.7,372.1,174.1,370.4,174.2L370.4,174.2L370.4,174.2z"/>
	<path class="st10" d="M263.9,190.7c-5.1,0-9.3,4.1-9.3,9.3c0,0,0,0,0,0c0,5.1,9.3,14.7,9.3,14.7s9.3-9.6,9.3-14.7
		C273.1,194.8,269,190.7,263.9,190.7L263.9,190.7z M263.9,203.7c-1.7,0-3.1-1.4-3.1-3.1s1.4-3.1,3.1-3.1c1.7,0,3.1,1.4,3.1,3.1
		C267,202.2,265.6,203.6,263.9,203.7L263.9,203.7L263.9,203.7z"/>
	<path class="st10" d="M302.9,110.2c-5.1,0-9.3,4.1-9.3,9.3c0,0,0,0,0,0c0,5.1,9.3,14.7,9.3,14.7s9.3-9.6,9.3-14.7
		C312.1,114.3,308,110.2,302.9,110.2C302.9,110.2,302.9,110.2,302.9,110.2z M302.9,123.2c-1.7,0-3.1-1.4-3.1-3.1
		c0-1.7,1.4-3.1,3.1-3.1c1.7,0,3.1,1.4,3.1,3.1C306,121.7,304.6,123.1,302.9,123.2L302.9,123.2L302.9,123.2z"/>
</g>
<g id="freepik--Device--inject-19">
	<rect x="82.6" y="447.1" class="st10" width="189.6" height="5.4"/>
	<rect x="205.6" y="447.1" class="st3" width="66.5" height="5.4"/>
	<path class="st5" d="M211,447.1H87.9l-7.1-81.9c-0.4-3.5,2.1-6.6,5.6-7c0.3,0,0.5,0,0.8,0h109c4,0.1,7.3,3.1,7.7,7.1L211,447.1z"/>
	<path class="st3" d="M208.6,447.1H85.6l-7.1-81.9c-0.4-3.5,2.1-6.6,5.6-7c0.3,0,0.5,0,0.8,0h109c4,0.1,7.3,3.1,7.7,7.1L208.6,447.1
		z"/>
	<polygon class="st10" points="203.2,384 85.6,447.1 208.6,447.1 	"/>
	
		<ellipse transform="matrix(0.6916 -0.7222 0.7222 0.6916 -246.263 223.458)" class="st10" cx="138.6" cy="400.1" rx="7.4" ry="8.1"/>
</g>
<g id="freepik--Mug--inject-19">
	<path class="st5" d="M470.3,416.1c-2.5-3.3-10.4-5.2-12.9-4v6.4c11.7-1.6,13.6,10,9.8,15.9c-2.1,3.2-6,4.9-9.8,4.3v5.5
		c2,0.7,5.7,1,10.2-2.7C474.7,435.6,475.8,423.6,470.3,416.1z"/>
	<rect x="423.6" y="402.8" class="st5" width="34.6" height="49.2"/>
	<path class="st13" d="M430.6,374c-0.3-1.5-0.2-3.1,0.4-4.5"/>
	<path class="st13" d="M431,397.5c0,0,7-4.5,4.5-11c-1.3-3.4-3-6.5-4.1-9.4"/>
	<path class="st13" d="M439,397.5c0,0,7-4.5,4.5-11c-0.8-2-1.6-3.8-2.5-5.6"/>
	<path class="st13" d="M450,383c-2.3-5-4.6-9.4-3-13.5"/>
	<path class="st13" d="M447,397.5c0,0,5.9-3.8,4.9-9.5"/>
</g>
<g id="freepik--Table--inject-19">
	<line class="st2" x1="15" y1="452.1" x2="487" y2="452.1"/>
</g>
<text transform="matrix(1 0 0 1 115 64.022)" class="st14 st15">Lieu de rencontre CJSM 2026</text>
</svg>
