<?xml version="1.0" encoding="utf-8"?>
<!-- Generator: Adobe Illustrator 24.0.0, SVG Export Plug-In . SVG Version: 6.00 Build 0)  -->
<svg version="1.1" id="Calque_1" xmlns="http://www.w3.org/2000/svg" xmlns:xlink="http://www.w3.org/1999/xlink" x="0px" y="0px"
	 viewBox="0 0 116.1 70.2" style="enable-background:new 0 0 116.1 70.2;" xml:space="preserve">
<style type="text/css">
	.st0{fill:#FFFFFF;}
	.st1{fill:none;}
</style>
<g>
	<path d="M-115.5,274.2c4.2-18.1,11.6-34.9,21.8-50.4c20.6-31.5,48.6-54.1,83.3-68.5c1.5-0.6,3.1-1.3,5-2.1
		c-23.7-23.5-34.1-51.3-29.1-84.1c4.1-26.8,18-47.9,40.3-63.2C52.9-26.5,122.7-9.4,146.3,47.6c13-7.1,26.1-14.1,39.4-21.4
		c-24-24-34.3-53.2-27.9-87.3c4.2-22.1,15.5-40.4,33-54.5c37.4-30.2,89.4-28.1,125,5.4c19.7,18.6,29.3,42,28.8,69.1
		c-0.4,26.8-11.1,49.4-30,67.4c11.7,6.6,23.5,12.7,34.6,19.7c11.6,7.2,12.5,22,2.5,30.1c-6.2,5.1-14.4,5.8-21.5,1.3
		c-11.4-7.2-22.9-14-35.9-17.9c-52.2-15.8-98.9-6-139.8,30.4c-1.1,1-2.1,2.8-2.3,4.3c-2.6,22.8-12.4,41.9-28.8,57.8
		c-0.3,0.3-0.5,0.7-1,1.4c5,2.4,10.1,4.4,14.9,7c7,3.8,14,7.8,20.7,12.2c9.1,6,11.3,16.8,5.9,25.4c-5.5,8.7-16.7,11.4-25.9,5.3
		c-17.1-11.2-35.4-19.3-55.6-22.7c-35.9-5.9-69.4,0.6-100.3,19.5c-27.7,17-47.4,40.8-58.6,71.5c-5.6,15.4,2.6,27.3,19.1,27.3
		c52.2,0,104.3,0,156.5,0c10.9,0,18.4,5.7,20.3,15.1c1.6,8.3-2.2,15.1-11.8,20.9c-59.9,0-119.8,0-179.7,0c-1.3-0.5-2.5-1.1-3.8-1.5
		c-12-3.4-21.5-10.5-28.9-20.3c-5.9-7.8-8.7-16.8-10.8-26.2C-115.5,282.8-115.5,278.5-115.5,274.2z M58.6,26.6
		c-31.6,0-57.4,25.7-57.3,57.2c0,31.4,26,57.3,57.5,57.2c31.6-0.1,57.3-25.9,57.3-57.4C116,52.2,90.2,26.6,58.6,26.6z M307.8-42.6
		c0-31.5-25.8-57.2-57.4-57.2c-31.6,0-57.4,25.7-57.4,57.2c0,31.5,25.8,57.2,57.4,57.2C281.9,14.7,307.8-11.1,307.8-42.6z"/>
	<path d="M59.7-90.3c-9.1-4.5-12.4-11.9-12.1-21.9c0.4-13.8,0.1-27.7,0.1-41.5c0-1.5,0-3,0-4.9c-4.2,0-8.1,0-11.9,0
		c-12.7,0-25.3,0.1-38,0c-11.3-0.1-19.6-8-19.6-18.5c0-10.5,8.2-18.4,19.6-18.4c16.4-0.1,32.7,0,49.8,0c0-1.8,0-3.4,0-5
		c0-15.4-0.1-30.8,0.1-46.2c0.1-9,6.6-16.2,15.3-17.8c8.2-1.5,16.8,2.9,20,10.8c1.2,2.9,1.6,6.3,1.7,9.4c0.2,16,0.1,32,0.1,48.8
		c1.8,0,3.4,0,5,0c15.4,0,30.9-0.1,46.3,0.1c9,0.1,16.2,6.5,17.9,15.2c1.6,8.3-3.2,17.1-11.2,20.1c-3,1.1-6.3,1.5-9.5,1.5
		c-15.9,0.1-31.8,0.1-48.4,0.1c0,1.8,0,3.4,0,5c0,13.8-0.3,27.7,0.1,41.5c0.3,9.9-3,17.4-12.1,21.8C68.3-90.3,64-90.3,59.7-90.3z"/>
	<path class="st0" d="M-115.5,287.1c2.1,9.3,4.9,18.4,10.8,26.2c7.5,9.9,16.9,16.9,28.9,20.3c1.3,0.4,2.5,1,3.8,1.5
		c-14.5,0-29,0-43.5,0C-115.5,319.1-115.5,303.1-115.5,287.1z"/>
	<path class="st0" d="M58.6,26.6c31.6,0,57.4,25.6,57.5,57.1c0,31.5-25.8,57.3-57.3,57.4c-31.5,0.1-57.5-25.8-57.5-57.2
		C1.2,52.4,26.9,26.7,58.6,26.6z"/>
	<path class="st0" d="M307.8-42.6c0,31.5-25.8,57.2-57.4,57.2c-31.6,0-57.4-25.7-57.4-57.2c0-31.5,25.8-57.2,57.4-57.2
		C281.9-99.8,307.8-74,307.8-42.6z"/>
	<path d="M-34.9,94.2c1.3,11.5,4.5,22.1,9.4,31.8c4.9-1.5,10-2.8,15.1-4c7.6-1.7,15.3-3.2,23-4.5c-6.9-9.5-11-21.1-11-33.7
		c0-31.5,25.8-57.1,57.5-57.1c27.1,0,49.8,18.9,55.8,44.1c7.3-6.7,14.8-13.3,23.1-19.1c2.6-1.8,5.2-3.5,7.9-5.1
		c-6.9-16.4-18.3-29.9-34-40.6C64.6-26.5-5.1-9.4-28.8,47.6c-13-7.1-26.1-14.1-39.4-21.4c24-24,34.3-53.2,27.9-87.3
		c-4.2-22.1-15.5-40.4-33-54.5c-37.4-30.2-89.4-28.1-125,5.4c-19.7,18.6-29.3,42-28.8,69.1c0.4,26.8,11.1,49.4,30,67.4
		c-11.7,6.6-23.5,12.7-34.6,19.7c-11.6,7.2-12.5,22-2.5,30.1c6.2,5.1,14.4,5.8,21.5,1.3c11.4-7.2,22.9-14,35.9-17.9
		c52.2-15.8,98.9-6,139.8,30.4C-36,90.9-35.1,92.7-34.9,94.2z M-132.8,14.7c-31.6,0-57.4-25.7-57.4-57.2c0-31.5,25.8-57.2,57.4-57.2
		c31.6,0,57.4,25.7,57.4,57.2C-75.4-11.1-101.2,14.7-132.8,14.7z"/>
</g>
<rect class="st1" width="116.1" height="70.2"/>
</svg>
